# xmcd CD database file
#
# Track frame offsets:
#	150
#	23822
#	36358
#	56527
#	72266
#	81796
#	96911
#	118508
#	132113
#	148268
#	166231
#	182486
#	201856
#	216302
#
# Disc length: 3051 seconds
#
# Revision: 1
# Processed by: cddbd v1.5.2PL0 Copyright (c) Steve Scherf et al.
# Submitted via: CDex 1.51
#
DISCID=c90be90e
DTITLE=ACWL - Le chemin du ciel
DYEAR=2009
DGENRE=New Age
TTITLE0=Promesse
TTITLE1=E-Fée
TTITLE2=Athéna
TTITLE3=Morphée
TTITLE4=Renaissance
TTITLE5=Enter dans la danse
TTITLE6=L'invisible
TTITLE7=Alarme
TTITLE8=Tuer mon idole
TTITLE9=In humanité
TTITLE10=Chaos
TTITLE11=Elieanor
TTITLE12=Sanctus
TTITLE13=Cueille-moi
EXTD=YEAR: 2009
EXTT0=
EXTT1=
EXTT2=
EXTT3=
EXTT4=
EXTT5=
EXTT6=
EXTT7=
EXTT8=
EXTT9=
EXTT10=
EXTT11=
EXTT12=
EXTT13=
PLAYORDER=
